<mxfile host="app.diagrams.net" agent="Mozilla/5.0 (Windows NT 10.0; Win64; x64; rv:137.0) Gecko/20100101 Firefox/137.0" version="26.2.14">
  <diagram name="Halaman-1" id="1jP7CQmqH2I7gtZYVKXi">
    <mxGraphModel dx="1869" dy="610" grid="1" gridSize="10" guides="1" tooltips="1" connect="1" arrows="1" fold="1" page="1" pageScale="1" pageWidth="827" pageHeight="1169" background="none" math="0" shadow="1" adaptiveColors="none">
      <root>
        <mxCell id="0" />
        <mxCell id="1" parent="0" />
        <mxCell id="5mJazKWGb7rsvKPiT_g1-112" style="edgeStyle=none;shape=connector;rounded=0;orthogonalLoop=1;jettySize=auto;html=1;exitX=0.5;exitY=1;exitDx=0;exitDy=0;entryX=0.5;entryY=0;entryDx=0;entryDy=0;strokeColor=default;align=center;verticalAlign=middle;fontFamily=Helvetica;fontSize=11;fontColor=default;labelBackgroundColor=default;startFill=0;endArrow=classic;endSize=7;endFill=1;" parent="1" source="5mJazKWGb7rsvKPiT_g1-110" target="5mJazKWGb7rsvKPiT_g1-5" edge="1">
          <mxGeometry relative="1" as="geometry" />
        </mxCell>
        <mxCell id="5mJazKWGb7rsvKPiT_g1-110" value="membuat" style="rhombus;whiteSpace=wrap;html=1;fontFamily=Helvetica;fontSize=11;fontColor=default;labelBackgroundColor=default;" parent="1" vertex="1">
          <mxGeometry x="-160" y="280" width="80" height="80" as="geometry" />
        </mxCell>
        <mxCell id="5mJazKWGb7rsvKPiT_g1-111" style="edgeStyle=none;shape=connector;rounded=0;orthogonalLoop=1;jettySize=auto;html=1;exitX=0.5;exitY=1;exitDx=0;exitDy=0;entryX=0.5;entryY=0;entryDx=0;entryDy=0;strokeColor=default;align=center;verticalAlign=middle;fontFamily=Helvetica;fontSize=11;fontColor=default;labelBackgroundColor=default;startFill=0;endArrow=none;" parent="1" source="5mJazKWGb7rsvKPiT_g1-1" target="5mJazKWGb7rsvKPiT_g1-110" edge="1">
          <mxGeometry relative="1" as="geometry" />
        </mxCell>
        <mxCell id="5mJazKWGb7rsvKPiT_g1-84" value="" style="group;fillColor=none;gradientColor=none;" parent="1" connectable="0" vertex="1">
          <mxGeometry x="-253.43" y="420" width="266.8544600938967" height="180" as="geometry" />
        </mxCell>
        <mxCell id="5mJazKWGb7rsvKPiT_g1-5" value="artikel" style="whiteSpace=wrap;html=1;" parent="5mJazKWGb7rsvKPiT_g1-84" vertex="1">
          <mxGeometry x="76.24413145539906" width="114.36619718309859" height="60" as="geometry" />
        </mxCell>
        <mxCell id="5mJazKWGb7rsvKPiT_g1-59" style="edgeStyle=none;shape=connector;rounded=0;orthogonalLoop=1;jettySize=auto;html=1;exitX=1;exitY=0.5;exitDx=0;exitDy=0;entryX=0.5;entryY=1;entryDx=0;entryDy=0;strokeColor=default;align=center;verticalAlign=middle;fontFamily=Helvetica;fontSize=11;fontColor=default;labelBackgroundColor=default;startFill=0;endArrow=none;" parent="5mJazKWGb7rsvKPiT_g1-84" source="5mJazKWGb7rsvKPiT_g1-54" target="5mJazKWGb7rsvKPiT_g1-5" edge="1">
          <mxGeometry relative="1" as="geometry" />
        </mxCell>
        <mxCell id="5mJazKWGb7rsvKPiT_g1-54" value="&lt;u&gt;id_artikel&lt;/u&gt;" style="ellipse;whiteSpace=wrap;html=1;" parent="5mJazKWGb7rsvKPiT_g1-84" vertex="1">
          <mxGeometry y="60" width="76.24413145539906" height="50" as="geometry" />
        </mxCell>
        <mxCell id="5mJazKWGb7rsvKPiT_g1-60" style="edgeStyle=none;shape=connector;rounded=0;orthogonalLoop=1;jettySize=auto;html=1;exitX=1;exitY=0;exitDx=0;exitDy=0;entryX=0.5;entryY=1;entryDx=0;entryDy=0;strokeColor=default;align=center;verticalAlign=middle;fontFamily=Helvetica;fontSize=11;fontColor=default;labelBackgroundColor=default;startFill=0;endArrow=none;" parent="5mJazKWGb7rsvKPiT_g1-84" source="5mJazKWGb7rsvKPiT_g1-55" target="5mJazKWGb7rsvKPiT_g1-5" edge="1">
          <mxGeometry relative="1" as="geometry" />
        </mxCell>
        <mxCell id="5mJazKWGb7rsvKPiT_g1-55" value="judul" style="ellipse;whiteSpace=wrap;html=1;" parent="5mJazKWGb7rsvKPiT_g1-84" vertex="1">
          <mxGeometry x="19.061032863849764" y="110" width="76.24413145539906" height="50" as="geometry" />
        </mxCell>
        <mxCell id="5mJazKWGb7rsvKPiT_g1-61" style="edgeStyle=none;shape=connector;rounded=0;orthogonalLoop=1;jettySize=auto;html=1;exitX=0.5;exitY=0;exitDx=0;exitDy=0;entryX=0.5;entryY=1;entryDx=0;entryDy=0;strokeColor=default;align=center;verticalAlign=middle;fontFamily=Helvetica;fontSize=11;fontColor=default;labelBackgroundColor=default;startFill=0;endArrow=none;" parent="5mJazKWGb7rsvKPiT_g1-84" source="5mJazKWGb7rsvKPiT_g1-56" target="5mJazKWGb7rsvKPiT_g1-5" edge="1">
          <mxGeometry relative="1" as="geometry" />
        </mxCell>
        <mxCell id="5mJazKWGb7rsvKPiT_g1-56" value="isi" style="ellipse;whiteSpace=wrap;html=1;" parent="5mJazKWGb7rsvKPiT_g1-84" vertex="1">
          <mxGeometry x="95.30516431924883" y="130" width="76.24413145539906" height="50" as="geometry" />
        </mxCell>
        <mxCell id="5mJazKWGb7rsvKPiT_g1-62" style="edgeStyle=none;shape=connector;rounded=0;orthogonalLoop=1;jettySize=auto;html=1;exitX=0;exitY=0;exitDx=0;exitDy=0;entryX=0.5;entryY=1;entryDx=0;entryDy=0;strokeColor=default;align=center;verticalAlign=middle;fontFamily=Helvetica;fontSize=11;fontColor=default;labelBackgroundColor=default;startFill=0;endArrow=none;" parent="5mJazKWGb7rsvKPiT_g1-84" source="5mJazKWGb7rsvKPiT_g1-57" target="5mJazKWGb7rsvKPiT_g1-5" edge="1">
          <mxGeometry relative="1" as="geometry" />
        </mxCell>
        <mxCell id="5mJazKWGb7rsvKPiT_g1-57" value="&lt;span style=&quot;background-color: light-dark(#ffffff, var(--ge-dark-color, #121212));&quot;&gt;tanggal_posting&lt;/span&gt;" style="ellipse;whiteSpace=wrap;html=1;" parent="5mJazKWGb7rsvKPiT_g1-84" vertex="1">
          <mxGeometry x="171.54929577464787" y="110" width="76.24413145539906" height="50" as="geometry" />
        </mxCell>
        <mxCell id="5mJazKWGb7rsvKPiT_g1-63" style="edgeStyle=none;shape=connector;rounded=0;orthogonalLoop=1;jettySize=auto;html=1;exitX=0;exitY=0.5;exitDx=0;exitDy=0;entryX=0.5;entryY=1;entryDx=0;entryDy=0;strokeColor=default;align=center;verticalAlign=middle;fontFamily=Helvetica;fontSize=11;fontColor=default;labelBackgroundColor=default;startFill=0;endArrow=none;" parent="5mJazKWGb7rsvKPiT_g1-84" source="5mJazKWGb7rsvKPiT_g1-58" target="5mJazKWGb7rsvKPiT_g1-5" edge="1">
          <mxGeometry relative="1" as="geometry" />
        </mxCell>
        <mxCell id="5mJazKWGb7rsvKPiT_g1-58" value="&lt;span style=&quot;background-color: rgb(255, 255, 255);&quot;&gt;foto_artikel&lt;/span&gt;" style="ellipse;whiteSpace=wrap;html=1;" parent="5mJazKWGb7rsvKPiT_g1-84" vertex="1">
          <mxGeometry x="190.61032863849766" y="60" width="76.24413145539906" height="50" as="geometry" />
        </mxCell>
        <mxCell id="5mJazKWGb7rsvKPiT_g1-113" value="(hanya user dengan peran = admin yang bisa nulis artikel)" style="text;html=1;align=left;verticalAlign=middle;resizable=0;points=[];autosize=1;strokeColor=none;fillColor=none;fontFamily=Helvetica;fontSize=11;fontColor=default;labelBackgroundColor=default;" parent="1" vertex="1">
          <mxGeometry x="-256.43" y="370" width="310" height="30" as="geometry" />
        </mxCell>
        <mxCell id="5mJazKWGb7rsvKPiT_g1-31" value="" style="group" parent="1" connectable="0" vertex="1">
          <mxGeometry x="452.00347417840374" y="51" width="251.6056338028169" height="210" as="geometry" />
        </mxCell>
        <mxCell id="5mJazKWGb7rsvKPiT_g1-25" style="edgeStyle=none;shape=connector;rounded=0;orthogonalLoop=1;jettySize=auto;html=1;exitX=0.5;exitY=0;exitDx=0;exitDy=0;entryX=1;entryY=0.5;entryDx=0;entryDy=0;strokeColor=default;align=center;verticalAlign=middle;fontFamily=Helvetica;fontSize=11;fontColor=default;labelBackgroundColor=default;startFill=0;endArrow=none;" parent="5mJazKWGb7rsvKPiT_g1-31" source="5mJazKWGb7rsvKPiT_g1-2" target="5mJazKWGb7rsvKPiT_g1-19" edge="1">
          <mxGeometry relative="1" as="geometry" />
        </mxCell>
        <mxCell id="5mJazKWGb7rsvKPiT_g1-26" style="edgeStyle=none;shape=connector;rounded=0;orthogonalLoop=1;jettySize=auto;html=1;exitX=0.5;exitY=0;exitDx=0;exitDy=0;entryX=1;entryY=0.5;entryDx=0;entryDy=0;strokeColor=default;align=center;verticalAlign=middle;fontFamily=Helvetica;fontSize=11;fontColor=default;labelBackgroundColor=default;startFill=0;endArrow=none;" parent="5mJazKWGb7rsvKPiT_g1-31" source="5mJazKWGb7rsvKPiT_g1-2" target="5mJazKWGb7rsvKPiT_g1-20" edge="1">
          <mxGeometry relative="1" as="geometry" />
        </mxCell>
        <mxCell id="5mJazKWGb7rsvKPiT_g1-27" style="edgeStyle=none;shape=connector;rounded=0;orthogonalLoop=1;jettySize=auto;html=1;exitX=0.5;exitY=0;exitDx=0;exitDy=0;entryX=0.5;entryY=1;entryDx=0;entryDy=0;strokeColor=default;align=center;verticalAlign=middle;fontFamily=Helvetica;fontSize=11;fontColor=default;labelBackgroundColor=default;startFill=0;endArrow=none;" parent="5mJazKWGb7rsvKPiT_g1-31" source="5mJazKWGb7rsvKPiT_g1-2" target="5mJazKWGb7rsvKPiT_g1-21" edge="1">
          <mxGeometry relative="1" as="geometry" />
        </mxCell>
        <mxCell id="5mJazKWGb7rsvKPiT_g1-2" value="sampah" style="whiteSpace=wrap;html=1;" parent="5mJazKWGb7rsvKPiT_g1-31" vertex="1">
          <mxGeometry x="66.71361502347418" y="150" width="114.36619718309859" height="60" as="geometry" />
        </mxCell>
        <mxCell id="5mJazKWGb7rsvKPiT_g1-19" value="&lt;u&gt;id_sampah&lt;/u&gt;" style="ellipse;whiteSpace=wrap;html=1;" parent="5mJazKWGb7rsvKPiT_g1-31" vertex="1">
          <mxGeometry y="90" width="76.24413145539906" height="50" as="geometry" />
        </mxCell>
        <mxCell id="5mJazKWGb7rsvKPiT_g1-20" value="nama_sampah" style="ellipse;whiteSpace=wrap;html=1;fontFamily=Helvetica;fontSize=11;fontColor=default;labelBackgroundColor=default;" parent="5mJazKWGb7rsvKPiT_g1-31" vertex="1">
          <mxGeometry y="40" width="76.24413145539906" height="50" as="geometry" />
        </mxCell>
        <mxCell id="5mJazKWGb7rsvKPiT_g1-21" value="kategori" style="ellipse;whiteSpace=wrap;html=1;fontFamily=Helvetica;fontSize=11;fontColor=default;labelBackgroundColor=default;" parent="5mJazKWGb7rsvKPiT_g1-31" vertex="1">
          <mxGeometry x="47.652582159624416" width="76.24413145539906" height="50" as="geometry" />
        </mxCell>
        <mxCell id="5mJazKWGb7rsvKPiT_g1-28" style="edgeStyle=none;shape=connector;rounded=0;orthogonalLoop=1;jettySize=auto;html=1;exitX=0.5;exitY=1;exitDx=0;exitDy=0;entryX=0.5;entryY=0;entryDx=0;entryDy=0;strokeColor=default;align=center;verticalAlign=middle;fontFamily=Helvetica;fontSize=11;fontColor=default;labelBackgroundColor=default;startFill=0;endArrow=none;" parent="5mJazKWGb7rsvKPiT_g1-31" source="5mJazKWGb7rsvKPiT_g1-22" target="5mJazKWGb7rsvKPiT_g1-2" edge="1">
          <mxGeometry relative="1" as="geometry" />
        </mxCell>
        <mxCell id="5mJazKWGb7rsvKPiT_g1-22" value="harga_per_kg" style="ellipse;whiteSpace=wrap;html=1;fontFamily=Helvetica;fontSize=11;fontColor=default;labelBackgroundColor=default;" parent="5mJazKWGb7rsvKPiT_g1-31" vertex="1">
          <mxGeometry x="123.89671361502347" width="76.24413145539906" height="50" as="geometry" />
        </mxCell>
        <mxCell id="5mJazKWGb7rsvKPiT_g1-29" style="edgeStyle=none;shape=connector;rounded=0;orthogonalLoop=1;jettySize=auto;html=1;exitX=0;exitY=0.5;exitDx=0;exitDy=0;entryX=0.5;entryY=0;entryDx=0;entryDy=0;strokeColor=default;align=center;verticalAlign=middle;fontFamily=Helvetica;fontSize=11;fontColor=default;labelBackgroundColor=default;startFill=0;endArrow=none;" parent="5mJazKWGb7rsvKPiT_g1-31" source="5mJazKWGb7rsvKPiT_g1-23" target="5mJazKWGb7rsvKPiT_g1-2" edge="1">
          <mxGeometry relative="1" as="geometry" />
        </mxCell>
        <mxCell id="5mJazKWGb7rsvKPiT_g1-23" value="cara_pilah" style="ellipse;whiteSpace=wrap;html=1;fontFamily=Helvetica;fontSize=11;fontColor=default;labelBackgroundColor=default;" parent="5mJazKWGb7rsvKPiT_g1-31" vertex="1">
          <mxGeometry x="175.36150234741783" y="40" width="76.24413145539906" height="50" as="geometry" />
        </mxCell>
        <mxCell id="5mJazKWGb7rsvKPiT_g1-30" style="edgeStyle=none;shape=connector;rounded=0;orthogonalLoop=1;jettySize=auto;html=1;exitX=0;exitY=0.5;exitDx=0;exitDy=0;entryX=0.5;entryY=0;entryDx=0;entryDy=0;strokeColor=default;align=center;verticalAlign=middle;fontFamily=Helvetica;fontSize=11;fontColor=default;labelBackgroundColor=default;startFill=0;endArrow=none;" parent="5mJazKWGb7rsvKPiT_g1-31" source="5mJazKWGb7rsvKPiT_g1-24" target="5mJazKWGb7rsvKPiT_g1-2" edge="1">
          <mxGeometry relative="1" as="geometry" />
        </mxCell>
        <mxCell id="5mJazKWGb7rsvKPiT_g1-24" value="gambar" style="ellipse;whiteSpace=wrap;html=1;fontFamily=Helvetica;fontSize=11;fontColor=default;labelBackgroundColor=default;" parent="5mJazKWGb7rsvKPiT_g1-31" vertex="1">
          <mxGeometry x="175.36150234741783" y="90" width="76.24413145539906" height="50" as="geometry" />
        </mxCell>
        <mxCell id="5mJazKWGb7rsvKPiT_g1-32" value="" style="group" parent="1" connectable="0" vertex="1">
          <mxGeometry x="-91.99948356807512" y="51" width="254.2434272300469" height="210" as="geometry" />
        </mxCell>
        <mxCell id="5mJazKWGb7rsvKPiT_g1-1" value="user" style="whiteSpace=wrap;html=1;" parent="5mJazKWGb7rsvKPiT_g1-32" vertex="1">
          <mxGeometry x="66.71361502347418" y="150" width="114.36619718309859" height="60" as="geometry" />
        </mxCell>
        <mxCell id="5mJazKWGb7rsvKPiT_g1-109" style="edgeStyle=none;shape=connector;rounded=0;orthogonalLoop=1;jettySize=auto;html=1;entryX=0.5;entryY=0;entryDx=0;entryDy=0;strokeColor=default;align=center;verticalAlign=middle;fontFamily=Helvetica;fontSize=11;fontColor=default;labelBackgroundColor=default;startFill=0;endArrow=none;" parent="5mJazKWGb7rsvKPiT_g1-32" source="5mJazKWGb7rsvKPiT_g1-8" target="5mJazKWGb7rsvKPiT_g1-1" edge="1">
          <mxGeometry relative="1" as="geometry" />
        </mxCell>
        <mxCell id="5mJazKWGb7rsvKPiT_g1-8" value="&lt;u&gt;id_user&lt;/u&gt;" style="ellipse;whiteSpace=wrap;html=1;" parent="5mJazKWGb7rsvKPiT_g1-32" vertex="1">
          <mxGeometry y="90" width="76.24413145539906" height="50" as="geometry" />
        </mxCell>
        <mxCell id="5mJazKWGb7rsvKPiT_g1-108" style="edgeStyle=none;shape=connector;rounded=0;orthogonalLoop=1;jettySize=auto;html=1;entryX=0.5;entryY=0;entryDx=0;entryDy=0;strokeColor=default;align=center;verticalAlign=middle;fontFamily=Helvetica;fontSize=11;fontColor=default;labelBackgroundColor=default;startFill=0;endArrow=none;" parent="5mJazKWGb7rsvKPiT_g1-32" source="5mJazKWGb7rsvKPiT_g1-9" target="5mJazKWGb7rsvKPiT_g1-1" edge="1">
          <mxGeometry relative="1" as="geometry" />
        </mxCell>
        <mxCell id="5mJazKWGb7rsvKPiT_g1-9" value="email" style="ellipse;whiteSpace=wrap;html=1;" parent="5mJazKWGb7rsvKPiT_g1-32" vertex="1">
          <mxGeometry x="19.061032863849764" y="40" width="76.24413145539906" height="50" as="geometry" />
        </mxCell>
        <mxCell id="5mJazKWGb7rsvKPiT_g1-105" style="edgeStyle=none;shape=connector;rounded=0;orthogonalLoop=1;jettySize=auto;html=1;entryX=0.5;entryY=0;entryDx=0;entryDy=0;strokeColor=default;align=center;verticalAlign=middle;fontFamily=Helvetica;fontSize=11;fontColor=default;labelBackgroundColor=default;startFill=0;endArrow=none;" parent="5mJazKWGb7rsvKPiT_g1-32" source="5mJazKWGb7rsvKPiT_g1-11" target="5mJazKWGb7rsvKPiT_g1-1" edge="1">
          <mxGeometry relative="1" as="geometry" />
        </mxCell>
        <mxCell id="5mJazKWGb7rsvKPiT_g1-11" value="password" style="ellipse;whiteSpace=wrap;html=1;" parent="5mJazKWGb7rsvKPiT_g1-32" vertex="1">
          <mxGeometry x="66.71464788732393" y="-2" width="76.24413145539906" height="50" as="geometry" />
        </mxCell>
        <mxCell id="5mJazKWGb7rsvKPiT_g1-104" style="edgeStyle=none;shape=connector;rounded=0;orthogonalLoop=1;jettySize=auto;html=1;entryX=0.5;entryY=0;entryDx=0;entryDy=0;strokeColor=default;align=center;verticalAlign=middle;fontFamily=Helvetica;fontSize=11;fontColor=default;labelBackgroundColor=default;startFill=0;endArrow=none;" parent="5mJazKWGb7rsvKPiT_g1-32" source="5mJazKWGb7rsvKPiT_g1-12" target="5mJazKWGb7rsvKPiT_g1-1" edge="1">
          <mxGeometry relative="1" as="geometry" />
        </mxCell>
        <mxCell id="5mJazKWGb7rsvKPiT_g1-12" value="foto_profil" style="ellipse;whiteSpace=wrap;html=1;" parent="5mJazKWGb7rsvKPiT_g1-32" vertex="1">
          <mxGeometry x="146.9982629107981" y="-2" width="76.24413145539906" height="50" as="geometry" />
        </mxCell>
        <mxCell id="5mJazKWGb7rsvKPiT_g1-103" style="edgeStyle=none;shape=connector;rounded=0;orthogonalLoop=1;jettySize=auto;html=1;entryX=0.5;entryY=0;entryDx=0;entryDy=0;strokeColor=default;align=center;verticalAlign=middle;fontFamily=Helvetica;fontSize=11;fontColor=default;labelBackgroundColor=default;startFill=0;endArrow=none;" parent="5mJazKWGb7rsvKPiT_g1-32" source="5mJazKWGb7rsvKPiT_g1-13" target="5mJazKWGb7rsvKPiT_g1-1" edge="1">
          <mxGeometry relative="1" as="geometry" />
        </mxCell>
        <mxCell id="5mJazKWGb7rsvKPiT_g1-13" value="total_sampah" style="ellipse;whiteSpace=wrap;html=1;" parent="5mJazKWGb7rsvKPiT_g1-32" vertex="1">
          <mxGeometry x="177.99929577464786" y="48" width="76.24413145539906" height="50" as="geometry" />
        </mxCell>
        <mxCell id="5mJazKWGb7rsvKPiT_g1-102" style="edgeStyle=none;shape=connector;rounded=0;orthogonalLoop=1;jettySize=auto;html=1;entryX=0.5;entryY=0;entryDx=0;entryDy=0;strokeColor=default;align=center;verticalAlign=middle;fontFamily=Helvetica;fontSize=11;fontColor=default;labelBackgroundColor=default;startFill=0;endArrow=none;" parent="5mJazKWGb7rsvKPiT_g1-32" source="5mJazKWGb7rsvKPiT_g1-100" target="5mJazKWGb7rsvKPiT_g1-1" edge="1">
          <mxGeometry relative="1" as="geometry" />
        </mxCell>
        <mxCell id="5mJazKWGb7rsvKPiT_g1-100" value="peran" style="ellipse;whiteSpace=wrap;html=1;" parent="5mJazKWGb7rsvKPiT_g1-32" vertex="1">
          <mxGeometry x="177.99929577464786" y="98" width="76.24413145539906" height="50" as="geometry" />
        </mxCell>
        <mxCell id="5mJazKWGb7rsvKPiT_g1-44" value="" style="group" parent="1" connectable="0" vertex="1">
          <mxGeometry x="187.99953051643195" y="92" width="247.79342723004694" height="193" as="geometry" />
        </mxCell>
        <mxCell id="5mJazKWGb7rsvKPiT_g1-33" value="&lt;u style=&quot;background-color: light-dark(#ffffff, var(--ge-dark-color, #121212));&quot;&gt;id_pengumpulan&lt;/u&gt;" style="ellipse;whiteSpace=wrap;html=1;labelBackgroundColor=none;" parent="5mJazKWGb7rsvKPiT_g1-44" vertex="1">
          <mxGeometry y="50" width="76.24413145539906" height="50" as="geometry" />
        </mxCell>
        <mxCell id="5mJazKWGb7rsvKPiT_g1-35" value="tanggal" style="ellipse;whiteSpace=wrap;html=1;" parent="5mJazKWGb7rsvKPiT_g1-44" vertex="1">
          <mxGeometry x="41.93427230046948" width="76.24413145539906" height="50" as="geometry" />
        </mxCell>
        <mxCell id="5mJazKWGb7rsvKPiT_g1-36" value="berat_kg" style="ellipse;whiteSpace=wrap;html=1;" parent="5mJazKWGb7rsvKPiT_g1-44" vertex="1">
          <mxGeometry x="118.17840375586854" width="76.24413145539906" height="50" as="geometry" />
        </mxCell>
        <mxCell id="5mJazKWGb7rsvKPiT_g1-37" value="estimasi_cuan" style="ellipse;whiteSpace=wrap;html=1;" parent="5mJazKWGb7rsvKPiT_g1-44" vertex="1">
          <mxGeometry x="171.54929577464787" y="50" width="76.24413145539906" height="50" as="geometry" />
        </mxCell>
        <mxCell id="5mJazKWGb7rsvKPiT_g1-42" style="edgeStyle=none;shape=connector;rounded=0;orthogonalLoop=1;jettySize=auto;html=1;exitX=1;exitY=1;exitDx=0;exitDy=0;entryX=0.5;entryY=0;entryDx=0;entryDy=0;strokeColor=default;align=center;verticalAlign=middle;fontFamily=Helvetica;fontSize=11;fontColor=default;labelBackgroundColor=default;startFill=0;endArrow=none;" parent="5mJazKWGb7rsvKPiT_g1-44" source="5mJazKWGb7rsvKPiT_g1-33" target="5mJazKWGb7rsvKPiT_g1-95" edge="1">
          <mxGeometry relative="1" as="geometry">
            <mxPoint x="119.30046948356807" y="109.99999999999989" as="targetPoint" />
          </mxGeometry>
        </mxCell>
        <mxCell id="5mJazKWGb7rsvKPiT_g1-40" style="edgeStyle=none;shape=connector;rounded=0;orthogonalLoop=1;jettySize=auto;html=1;exitX=0.5;exitY=0;exitDx=0;exitDy=0;entryX=0.588;entryY=1;entryDx=0;entryDy=0;entryPerimeter=0;strokeColor=default;align=center;verticalAlign=middle;fontFamily=Helvetica;fontSize=11;fontColor=default;labelBackgroundColor=default;startFill=0;endArrow=none;" parent="5mJazKWGb7rsvKPiT_g1-44" source="5mJazKWGb7rsvKPiT_g1-95" target="5mJazKWGb7rsvKPiT_g1-35" edge="1">
          <mxGeometry relative="1" as="geometry">
            <mxPoint x="119.30046948356807" y="109.99999999999989" as="sourcePoint" />
          </mxGeometry>
        </mxCell>
        <mxCell id="5mJazKWGb7rsvKPiT_g1-38" style="edgeStyle=none;shape=connector;rounded=0;orthogonalLoop=1;jettySize=auto;html=1;exitX=0.5;exitY=0;exitDx=0;exitDy=0;entryX=0.5;entryY=1;entryDx=0;entryDy=0;strokeColor=default;align=center;verticalAlign=middle;fontFamily=Helvetica;fontSize=11;fontColor=default;labelBackgroundColor=default;startFill=0;endArrow=none;" parent="5mJazKWGb7rsvKPiT_g1-44" source="5mJazKWGb7rsvKPiT_g1-95" target="5mJazKWGb7rsvKPiT_g1-36" edge="1">
          <mxGeometry relative="1" as="geometry">
            <mxPoint x="119.30046948356807" y="109.99999999999989" as="sourcePoint" />
          </mxGeometry>
        </mxCell>
        <mxCell id="5mJazKWGb7rsvKPiT_g1-41" style="edgeStyle=none;shape=connector;rounded=0;orthogonalLoop=1;jettySize=auto;html=1;exitX=0;exitY=1;exitDx=0;exitDy=0;entryX=0.5;entryY=0;entryDx=0;entryDy=0;strokeColor=default;align=center;verticalAlign=middle;fontFamily=Helvetica;fontSize=11;fontColor=default;labelBackgroundColor=default;startFill=0;endArrow=none;" parent="5mJazKWGb7rsvKPiT_g1-44" source="5mJazKWGb7rsvKPiT_g1-37" target="5mJazKWGb7rsvKPiT_g1-95" edge="1">
          <mxGeometry relative="1" as="geometry">
            <mxPoint x="119.30046948356807" y="109.99999999999989" as="targetPoint" />
          </mxGeometry>
        </mxCell>
        <mxCell id="5mJazKWGb7rsvKPiT_g1-95" value="pengumpulan" style="rhombus;whiteSpace=wrap;html=1;fontFamily=Helvetica;fontSize=11;fontColor=default;labelBackgroundColor=default;" parent="5mJazKWGb7rsvKPiT_g1-44" vertex="1">
          <mxGeometry x="79.30046948356807" y="100" width="80" height="80" as="geometry" />
        </mxCell>
        <mxCell id="5mJazKWGb7rsvKPiT_g1-81" value="" style="group" parent="1" connectable="0" vertex="1">
          <mxGeometry x="36.57140845070416" y="400" width="284.00525821596244" height="210" as="geometry" />
        </mxCell>
        <mxCell id="5mJazKWGb7rsvKPiT_g1-3" value="pengepul" style="whiteSpace=wrap;html=1;" parent="5mJazKWGb7rsvKPiT_g1-81" vertex="1">
          <mxGeometry x="76.24413145539906" width="114.36619718309859" height="60" as="geometry" />
        </mxCell>
        <mxCell id="5mJazKWGb7rsvKPiT_g1-74" style="edgeStyle=none;shape=connector;rounded=0;orthogonalLoop=1;jettySize=auto;html=1;exitX=1;exitY=0.5;exitDx=0;exitDy=0;entryX=0.5;entryY=1;entryDx=0;entryDy=0;strokeColor=default;align=center;verticalAlign=middle;fontFamily=Helvetica;fontSize=11;fontColor=default;labelBackgroundColor=default;startFill=0;endArrow=none;" parent="5mJazKWGb7rsvKPiT_g1-81" source="5mJazKWGb7rsvKPiT_g1-66" target="5mJazKWGb7rsvKPiT_g1-3" edge="1">
          <mxGeometry relative="1" as="geometry" />
        </mxCell>
        <mxCell id="5mJazKWGb7rsvKPiT_g1-66" value="&lt;u&gt;id_pengepul&lt;/u&gt;" style="ellipse;whiteSpace=wrap;html=1;" parent="5mJazKWGb7rsvKPiT_g1-81" vertex="1">
          <mxGeometry y="60" width="76.24413145539906" height="50" as="geometry" />
        </mxCell>
        <mxCell id="5mJazKWGb7rsvKPiT_g1-75" style="edgeStyle=none;shape=connector;rounded=0;orthogonalLoop=1;jettySize=auto;html=1;exitX=1;exitY=0.5;exitDx=0;exitDy=0;strokeColor=default;align=center;verticalAlign=middle;fontFamily=Helvetica;fontSize=11;fontColor=default;labelBackgroundColor=default;startFill=0;endArrow=none;entryX=0.5;entryY=1;entryDx=0;entryDy=0;" parent="5mJazKWGb7rsvKPiT_g1-81" source="5mJazKWGb7rsvKPiT_g1-68" target="5mJazKWGb7rsvKPiT_g1-3" edge="1">
          <mxGeometry relative="1" as="geometry">
            <mxPoint x="141.05164319248826" y="80" as="targetPoint" />
          </mxGeometry>
        </mxCell>
        <mxCell id="5mJazKWGb7rsvKPiT_g1-68" value="&lt;span style=&quot;background-color: light-dark(#ffffff, var(--ge-dark-color, #121212));&quot;&gt;nama_pengepul&lt;/span&gt;" style="ellipse;whiteSpace=wrap;html=1;" parent="5mJazKWGb7rsvKPiT_g1-81" vertex="1">
          <mxGeometry y="110" width="76.24413145539906" height="50" as="geometry" />
        </mxCell>
        <mxCell id="5mJazKWGb7rsvKPiT_g1-76" style="edgeStyle=none;shape=connector;rounded=0;orthogonalLoop=1;jettySize=auto;html=1;exitX=1;exitY=0.5;exitDx=0;exitDy=0;entryX=0.5;entryY=1;entryDx=0;entryDy=0;strokeColor=default;align=center;verticalAlign=middle;fontFamily=Helvetica;fontSize=11;fontColor=default;labelBackgroundColor=default;startFill=0;endArrow=none;" parent="5mJazKWGb7rsvKPiT_g1-81" source="5mJazKWGb7rsvKPiT_g1-69" target="5mJazKWGb7rsvKPiT_g1-3" edge="1">
          <mxGeometry relative="1" as="geometry" />
        </mxCell>
        <mxCell id="5mJazKWGb7rsvKPiT_g1-69" value="&lt;span style=&quot;background-color: light-dark(#ffffff, var(--ge-dark-color, #121212));&quot;&gt;alamat&lt;/span&gt;" style="ellipse;whiteSpace=wrap;html=1;" parent="5mJazKWGb7rsvKPiT_g1-81" vertex="1">
          <mxGeometry x="13.426995305164318" y="170" width="76.24413145539906" height="50" as="geometry" />
        </mxCell>
        <mxCell id="5mJazKWGb7rsvKPiT_g1-77" style="edgeStyle=none;shape=connector;rounded=0;orthogonalLoop=1;jettySize=auto;html=1;exitX=0.5;exitY=0;exitDx=0;exitDy=0;entryX=0.5;entryY=1;entryDx=0;entryDy=0;strokeColor=default;align=center;verticalAlign=middle;fontFamily=Helvetica;fontSize=11;fontColor=default;labelBackgroundColor=default;startFill=0;endArrow=none;" parent="5mJazKWGb7rsvKPiT_g1-81" source="5mJazKWGb7rsvKPiT_g1-70" target="5mJazKWGb7rsvKPiT_g1-3" edge="1">
          <mxGeometry relative="1" as="geometry" />
        </mxCell>
        <mxCell id="5mJazKWGb7rsvKPiT_g1-70" value="latitude" style="ellipse;whiteSpace=wrap;html=1;" parent="5mJazKWGb7rsvKPiT_g1-81" vertex="1">
          <mxGeometry x="103.88112676056339" y="170" width="76.24413145539906" height="50" as="geometry" />
        </mxCell>
        <mxCell id="5mJazKWGb7rsvKPiT_g1-78" style="edgeStyle=none;shape=connector;rounded=0;orthogonalLoop=1;jettySize=auto;html=1;exitX=0;exitY=0.5;exitDx=0;exitDy=0;entryX=0.5;entryY=1;entryDx=0;entryDy=0;strokeColor=default;align=center;verticalAlign=middle;fontFamily=Helvetica;fontSize=11;fontColor=default;labelBackgroundColor=default;startFill=0;endArrow=none;" parent="5mJazKWGb7rsvKPiT_g1-81" source="5mJazKWGb7rsvKPiT_g1-72" target="5mJazKWGb7rsvKPiT_g1-3" edge="1">
          <mxGeometry relative="1" as="geometry" />
        </mxCell>
        <mxCell id="5mJazKWGb7rsvKPiT_g1-72" value="&lt;span style=&quot;background-color: light-dark(#ffffff, var(--ge-dark-color, #121212));&quot;&gt;jam_operasional&lt;/span&gt;" style="ellipse;whiteSpace=wrap;html=1;" parent="5mJazKWGb7rsvKPiT_g1-81" vertex="1">
          <mxGeometry x="190.61032863849766" y="70" width="76.24413145539906" height="50" as="geometry" />
        </mxCell>
        <mxCell id="P96W1JgretgnkbomRMR9-4" style="edgeStyle=none;curved=1;rounded=0;orthogonalLoop=1;jettySize=auto;html=1;exitX=0.5;exitY=0;exitDx=0;exitDy=0;entryX=0.5;entryY=1;entryDx=0;entryDy=0;fontSize=12;startSize=8;endSize=8;endArrow=none;startFill=0;" parent="5mJazKWGb7rsvKPiT_g1-81" source="P96W1JgretgnkbomRMR9-3" target="5mJazKWGb7rsvKPiT_g1-3" edge="1">
          <mxGeometry relative="1" as="geometry" />
        </mxCell>
        <mxCell id="P96W1JgretgnkbomRMR9-3" value="longitude" style="ellipse;whiteSpace=wrap;html=1;" parent="5mJazKWGb7rsvKPiT_g1-81" vertex="1">
          <mxGeometry x="173.4311267605634" y="140" width="76.24413145539906" height="50" as="geometry" />
        </mxCell>
        <mxCell id="5mJazKWGb7rsvKPiT_g1-94" style="edgeStyle=none;shape=connector;rounded=0;orthogonalLoop=1;jettySize=auto;html=1;strokeColor=default;align=center;verticalAlign=middle;fontFamily=Helvetica;fontSize=11;fontColor=default;labelBackgroundColor=default;startFill=0;endArrow=classic;endFill=1;exitX=0;exitY=0.5;exitDx=0;exitDy=0;entryX=1;entryY=0.5;entryDx=0;entryDy=0;" parent="1" source="5mJazKWGb7rsvKPiT_g1-2" target="5mJazKWGb7rsvKPiT_g1-95" edge="1">
          <mxGeometry relative="1" as="geometry">
            <mxPoint x="593" y="232" as="sourcePoint" />
            <mxPoint x="423" y="271" as="targetPoint" />
          </mxGeometry>
        </mxCell>
        <mxCell id="5mJazKWGb7rsvKPiT_g1-96" style="edgeStyle=none;shape=connector;rounded=0;orthogonalLoop=1;jettySize=auto;html=1;exitX=1;exitY=0.5;exitDx=0;exitDy=0;entryX=0;entryY=0.5;entryDx=0;entryDy=0;strokeColor=default;align=center;verticalAlign=middle;fontFamily=Helvetica;fontSize=11;fontColor=default;labelBackgroundColor=default;startFill=0;endArrow=classic;endFill=1;" parent="1" source="5mJazKWGb7rsvKPiT_g1-1" target="5mJazKWGb7rsvKPiT_g1-95" edge="1">
          <mxGeometry relative="1" as="geometry" />
        </mxCell>
        <mxCell id="5mJazKWGb7rsvKPiT_g1-97" value="&lt;div&gt;Bookmark (&lt;/div&gt;&lt;div&gt;&amp;nbsp; id_user INT,&lt;/div&gt;&lt;div&gt;&amp;nbsp; id_pengepul INT,&lt;/div&gt;&lt;div&gt;&amp;nbsp; PRIMARY KEY (id_user, id_pengepul),&lt;/div&gt;&lt;div&gt;&amp;nbsp; FOREIGN KEY (id_user) REFERENCES User(id_user),&lt;/div&gt;&lt;div&gt;&amp;nbsp; FOREIGN KEY (id_pengepul) REFERENCES Pengepul(id_pengepul)&lt;/div&gt;&lt;div&gt;)&lt;/div&gt;" style="text;html=1;align=left;verticalAlign=middle;resizable=0;points=[];autosize=1;strokeColor=none;fillColor=none;fontFamily=Helvetica;fontSize=11;fontColor=default;labelBackgroundColor=default;" parent="1" vertex="1">
          <mxGeometry x="224" y="290" width="364" height="104" as="geometry" />
        </mxCell>
        <mxCell id="5mJazKWGb7rsvKPiT_g1-87" value="bookmark" style="rhombus;whiteSpace=wrap;html=1;fontFamily=Helvetica;fontSize=11;fontColor=default;labelBackgroundColor=default;" parent="1" vertex="1">
          <mxGeometry x="130" y="285" width="80" height="80" as="geometry" />
        </mxCell>
        <mxCell id="5mJazKWGb7rsvKPiT_g1-51" style="edgeStyle=none;shape=connector;rounded=0;orthogonalLoop=1;jettySize=auto;html=1;exitX=0.5;exitY=1;exitDx=0;exitDy=0;entryX=0.5;entryY=0;entryDx=0;entryDy=0;strokeColor=default;align=center;verticalAlign=middle;fontFamily=Helvetica;fontSize=11;fontColor=default;labelBackgroundColor=default;startFill=0;endArrow=classic;endFill=1;" parent="1" source="5mJazKWGb7rsvKPiT_g1-1" target="5mJazKWGb7rsvKPiT_g1-87" edge="1">
          <mxGeometry relative="1" as="geometry">
            <mxPoint x="316.41314553990605" y="391" as="targetPoint" />
          </mxGeometry>
        </mxCell>
        <mxCell id="5mJazKWGb7rsvKPiT_g1-52" style="edgeStyle=none;shape=connector;rounded=0;orthogonalLoop=1;jettySize=auto;html=1;exitX=0.5;exitY=0;exitDx=0;exitDy=0;entryX=0.5;entryY=1;entryDx=0;entryDy=0;strokeColor=default;align=center;verticalAlign=middle;fontFamily=Helvetica;fontSize=11;fontColor=default;labelBackgroundColor=default;startFill=0;endArrow=classic;endFill=1;" parent="1" source="5mJazKWGb7rsvKPiT_g1-3" target="5mJazKWGb7rsvKPiT_g1-87" edge="1">
          <mxGeometry relative="1" as="geometry">
            <mxPoint x="430.7793427230047" y="391" as="targetPoint" />
          </mxGeometry>
        </mxCell>
        <mxCell id="P96W1JgretgnkbomRMR9-6" value="&lt;p class=&quot;&quot; data-end=&quot;388&quot; data-start=&quot;275&quot;&gt;&lt;font style=&quot;font-size: 11px;&quot;&gt;&lt;strong data-end=&quot;306&quot; data-start=&quot;275&quot;&gt;Kalau mau tampilkan di view&lt;/strong&gt;:&lt;br&gt;Misal, mau nampilin &lt;strong data-end=&quot;345&quot; data-start=&quot;328&quot;&gt;nama pengepul&lt;/strong&gt; dan &lt;strong data-end=&quot;378&quot; data-start=&quot;350&quot;&gt;kategori yang dia terima&lt;/strong&gt;, caranya:&lt;/font&gt;&lt;/p&gt;&lt;p class=&quot;&quot; data-end=&quot;411&quot; data-start=&quot;390&quot;&gt;&lt;strong data-end=&quot;411&quot; data-start=&quot;390&quot;&gt;&lt;font style=&quot;font-size: 11px;&quot;&gt;Contoh SQL basic:&lt;/font&gt;&lt;/strong&gt;&lt;/p&gt;&lt;pre data-end=&quot;704&quot; data-start=&quot;413&quot; class=&quot;overflow-visible!&quot;&gt;&lt;div class=&quot;contain-inline-size rounded-md border-[0.5px] border-token-border-medium relative bg-token-sidebar-surface-primary&quot;&gt;&lt;div class=&quot;flex items-center text-token-text-secondary px-4 py-2 text-xs font-sans justify-between h-9 bg-token-sidebar-surface-primary dark:bg-token-main-surface-secondary select-none rounded-t-[5px]&quot;&gt;&lt;font style=&quot;font-size: 11px;&quot;&gt;sql&lt;/font&gt;&lt;/div&gt;&lt;div dir=&quot;ltr&quot; class=&quot;overflow-y-auto p-4&quot;&gt;&lt;code class=&quot;whitespace-pre! language-sql&quot;&gt;&lt;font style=&quot;font-size: 11px;&quot;&gt;&lt;span class=&quot;hljs-keyword&quot;&gt;SELECT&lt;/span&gt; &lt;br&gt;  p.nama_pengepul,&lt;br&gt;  GROUP_CONCAT(ks.nama_kategori SEPARATOR &lt;span class=&quot;hljs-string&quot;&gt;&#39;, &#39;&lt;/span&gt;) &lt;span class=&quot;hljs-keyword&quot;&gt;AS&lt;/span&gt; kategori_diterima&lt;br&gt;&lt;span class=&quot;hljs-keyword&quot;&gt;FROM&lt;/span&gt; &lt;br&gt;  pengepul p&lt;br&gt;&lt;span class=&quot;hljs-keyword&quot;&gt;JOIN&lt;/span&gt; &lt;br&gt;  pengepul_kategori pk &lt;span class=&quot;hljs-keyword&quot;&gt;ON&lt;/span&gt; p.id_pengepul &lt;span class=&quot;hljs-operator&quot;&gt;=&lt;/span&gt; pk.id_pengepul&lt;br&gt;&lt;span class=&quot;hljs-keyword&quot;&gt;JOIN&lt;/span&gt; &lt;br&gt;  kategori_sampah ks &lt;span class=&quot;hljs-keyword&quot;&gt;ON&lt;/span&gt; pk.id_kategori_sampah &lt;span class=&quot;hljs-operator&quot;&gt;=&lt;/span&gt; ks.id_kategori_sampah&lt;br&gt;&lt;span class=&quot;hljs-keyword&quot;&gt;GROUP&lt;/span&gt; &lt;span class=&quot;hljs-keyword&quot;&gt;BY&lt;/span&gt; &lt;br&gt;  p.id_pengepul;&lt;/font&gt;&lt;/code&gt;&lt;/div&gt;&lt;/div&gt;&lt;/pre&gt;" style="text;html=1;align=left;verticalAlign=middle;resizable=0;points=[];autosize=1;strokeColor=none;fillColor=none;fontSize=16;" parent="1" vertex="1">
          <mxGeometry x="370" y="409" width="440" height="370" as="geometry" />
        </mxCell>
      </root>
    </mxGraphModel>
  </diagram>
</mxfile>
